<svg width="242" height="76" viewBox="0 0 242 76" fill="none" xmlns="http://www.w3.org/2000/svg">
<g clip-path="url(#clip0_205_809)">
<path d="M23.0588 15.6471C20.1234 15.6471 17.2167 16.161 14.5047 17.1595C11.7927 18.1581 9.32856 19.6216 7.25289 21.4667C5.17723 23.3117 3.53073 25.5021 2.40739 27.9127C1.28405 30.3234 0.70587 32.9071 0.705871 35.5164L23.0588 35.5164L23.0588 15.6471Z" fill="#1169F9"/>
<path d="M0.705923 38C0.705923 40.9355 1.2841 43.8421 2.40744 46.5541C3.53078 49.2661 5.17729 51.7303 7.25295 53.8059C9.32861 55.8816 11.7928 57.5281 14.5048 58.6515C17.2167 59.7748 20.1234 60.353 23.0589 60.353L23.0589 38L0.705923 38Z" fill="#292636"/>
<path fill-rule="evenodd" clip-rule="evenodd" d="M43.8992 27.9127C44.8978 30.3234 45.4117 32.9071 45.4117 35.5164H25.5424V15.6471C28.1517 15.6471 30.7354 16.161 33.1461 17.1596C35.5567 18.1581 37.7471 19.6216 39.5921 21.4667C41.4372 23.3117 42.9007 25.5021 43.8992 27.9127ZM31.7516 33.0327C33.8091 33.0327 35.4771 31.3648 35.4771 29.3073C35.4771 27.2497 33.8091 25.5818 31.7516 25.5818C29.694 25.5818 28.0261 27.2497 28.0261 29.3073C28.0261 31.3648 29.694 33.0327 31.7516 33.0327Z" fill="#6B15F9"/>
</g>
<path d="M76.9518 58.6974C74.5108 58.6974 72.4961 58.2906 70.9075 57.4769C69.319 56.6633 68.1373 55.5978 67.3624 54.2805C66.5875 52.9244 66.2 51.4521 66.2 49.8635C66.2 47.0739 67.2849 44.8654 69.4546 43.2381C71.6243 41.6108 74.7239 40.7972 78.7534 40.7972H86.3087V40.2741C86.3087 38.0269 85.6888 36.3415 84.449 35.2179C83.2479 34.0943 81.6787 33.5325 79.7414 33.5325C78.0366 33.5325 76.545 33.9587 75.2664 34.8111C74.0265 35.6247 73.271 36.8452 72.9998 38.4725H66.8393C67.033 36.3802 67.7304 34.598 68.9315 33.1256C70.1714 31.6146 71.7212 30.4716 73.581 29.6967C75.4795 28.8831 77.5523 28.4762 79.7995 28.4762C83.829 28.4762 86.948 29.5417 89.1565 31.6727C91.365 33.7649 92.4692 36.6321 92.4692 40.2741V58H87.1224L86.5993 53.06C85.7857 54.6485 84.6039 55.9853 83.0541 57.0701C81.5043 58.155 79.4702 58.6974 76.9518 58.6974ZM78.1722 53.6993C79.8383 53.6993 81.2331 53.3118 82.3567 52.5369C83.5191 51.7233 84.4102 50.6578 85.0301 49.3405C85.6888 48.0231 86.0956 46.5702 86.2506 44.9816H79.3927C76.9518 44.9816 75.2082 45.4078 74.1621 46.2602C73.1548 47.1126 72.6511 48.1781 72.6511 49.4567C72.6511 50.774 73.1354 51.8202 74.104 52.5951C75.1114 53.3312 76.4675 53.6993 78.1722 53.6993ZM110.288 58.6974C106.801 58.6974 104.05 57.6125 102.035 55.4428C100.059 53.2731 99.071 50.0379 99.071 45.7372V29.1736H105.231V45.0979C105.231 50.6772 107.517 53.4668 112.089 53.4668C114.375 53.4668 116.254 52.6532 117.727 51.0259C119.199 49.3986 119.935 47.0739 119.935 44.0518V29.1736H126.096V58H120.633L120.168 52.9438C119.277 54.726 117.959 56.1402 116.216 57.1864C114.511 58.1937 112.535 58.6974 110.288 58.6974ZM147.067 58.6974C144.277 58.6974 141.817 58.0387 139.686 56.7214C137.555 55.4041 135.889 53.6024 134.688 51.3165C133.487 49.0305 132.886 46.4346 132.886 43.5287C132.886 40.6228 133.487 38.0463 134.688 35.7991C135.889 33.5131 137.555 31.7308 139.686 30.4522C141.856 29.1349 144.336 28.4762 147.125 28.4762C149.411 28.4762 151.407 28.9218 153.111 29.8129C154.855 30.7041 156.211 31.9633 157.18 33.5906V16.1553H163.34V58H157.819L157.18 53.5249C156.25 54.881 154.971 56.0821 153.344 57.1282C151.716 58.1744 149.624 58.6974 147.067 58.6974ZM148.171 53.3506C150.806 53.3506 152.956 52.4401 154.622 50.6191C156.327 48.798 157.18 46.454 157.18 43.5868C157.18 40.6809 156.327 38.3369 154.622 36.5546C152.956 34.7336 150.806 33.8231 148.171 33.8231C145.537 33.8231 143.367 34.7336 141.662 36.5546C139.957 38.3369 139.105 40.6809 139.105 43.5868C139.105 45.4853 139.492 47.1707 140.267 48.6431C141.042 50.1154 142.108 51.2777 143.464 52.1301C144.859 52.9438 146.428 53.3506 148.171 53.3506ZM174.594 23.7106C173.432 23.7106 172.463 23.3619 171.689 22.6645C170.952 21.9283 170.584 21.0178 170.584 19.9329C170.584 18.8481 170.952 17.9569 171.689 17.2595C172.463 16.5234 173.432 16.1553 174.594 16.1553C175.757 16.1553 176.706 16.5234 177.442 17.2595C178.217 17.9569 178.605 18.8481 178.605 19.9329C178.605 21.0178 178.217 21.9283 177.442 22.6645C176.706 23.3619 175.757 23.7106 174.594 23.7106ZM171.514 58V29.1736H177.675V58H171.514ZM187.26 58V34.3461H183.134V29.1736H187.26V24.9892C187.26 21.8508 188.035 19.6036 189.585 18.2475C191.173 16.8527 193.401 16.1553 196.268 16.1553H199.29V21.3859H197.198C195.842 21.3859 194.873 21.6765 194.292 22.2576C193.711 22.8001 193.42 23.73 193.42 25.0473V29.1736H200.046V34.3461H193.42V58H187.26ZM209.269 70.7859L216.185 55.6172H214.5L203.109 29.1736H209.792L218.626 50.5028L227.867 29.1736H234.376L215.778 70.7859H209.269ZM237.569 58.3487C236.406 58.3487 235.438 57.9806 234.663 57.2445C233.926 56.4696 233.558 55.5591 233.558 54.5129C233.558 53.4281 233.926 52.5176 234.663 51.7814C235.438 51.0065 236.406 50.6191 237.569 50.6191C238.731 50.6191 239.68 51.0065 240.416 51.7814C241.152 52.5176 241.521 53.4281 241.521 54.5129C241.521 55.5591 241.152 56.4696 240.416 57.2445C239.68 57.9806 238.731 58.3487 237.569 58.3487Z" fill="#F0E8FE"/>
<defs>
<clipPath id="clip0_205_809">
<rect width="44.7059" height="44.7059" fill="white" transform="translate(0.705872 15.6471)"/>
</clipPath>
</defs>
</svg>
