<svg width="125" height="34" viewBox="0 0 125 34" fill="none" xmlns="http://www.w3.org/2000/svg">
<g clip-path="url(#clip0_14_56)">
<path d="M18 6.99999C16.6868 6.99999 15.3864 7.22991 14.1732 7.67662C12.9599 8.12333 11.8575 8.77808 10.9289 9.60349C10.0003 10.4289 9.26375 11.4088 8.7612 12.4873C8.25866 13.5657 8 14.7216 8 15.8889L18 15.8889L18 6.99999Z" fill="#1169F9"/>
<path d="M8 17C8 18.3132 8.25866 19.6136 8.76121 20.8268C9.26375 22.0401 10.0003 23.1425 10.9289 24.0711C11.8575 24.9997 12.9599 25.7362 14.1732 26.2388C15.3864 26.7413 16.6868 27 18 27L18 17L8 17Z" fill="#292636"/>
<path fill-rule="evenodd" clip-rule="evenodd" d="M27.3234 12.4873C27.7701 13.5657 28 14.7216 28 15.8889H19.1111L19.1111 7C20.2784 7 21.4343 7.22992 22.5127 7.67663C23.5912 8.12333 24.5711 8.77809 25.3965 9.6035C26.2219 10.4289 26.8767 11.4088 27.3234 12.4873ZM21.8889 14.7778C22.8094 14.7778 23.5556 14.0316 23.5556 13.1111C23.5556 12.1906 22.8094 11.4444 21.8889 11.4444C20.9684 11.4444 20.2222 12.1906 20.2222 13.1111C20.2222 14.0316 20.9684 14.7778 21.8889 14.7778Z" fill="#6B15F9"/>
</g>
<path d="M42.11 26.312C41.018 26.312 40.1167 26.13 39.406 25.766C38.6953 25.402 38.1667 24.9253 37.82 24.336C37.4733 23.7293 37.3 23.0707 37.3 22.36C37.3 21.112 37.7853 20.124 38.756 19.396C39.7267 18.668 41.1133 18.304 42.916 18.304H46.296V18.07C46.296 17.0647 46.0187 16.3107 45.464 15.808C44.9267 15.3053 44.2247 15.054 43.358 15.054C42.5953 15.054 41.928 15.2447 41.356 15.626C40.8013 15.99 40.4633 16.536 40.342 17.264H37.586C37.6727 16.328 37.9847 15.5307 38.522 14.872C39.0767 14.196 39.77 13.6847 40.602 13.338C41.4513 12.974 42.3787 12.792 43.384 12.792C45.1867 12.792 46.582 13.2687 47.57 14.222C48.558 15.158 49.052 16.4407 49.052 18.07V26H46.66L46.426 23.79C46.062 24.5007 45.5333 25.0987 44.84 25.584C44.1467 26.0693 43.2367 26.312 42.11 26.312ZM42.656 24.076C43.4013 24.076 44.0253 23.9027 44.528 23.556C45.048 23.192 45.4467 22.7153 45.724 22.126C46.0187 21.5367 46.2007 20.8867 46.27 20.176H43.202C42.11 20.176 41.33 20.3667 40.862 20.748C40.4113 21.1293 40.186 21.606 40.186 22.178C40.186 22.7673 40.4027 23.2353 40.836 23.582C41.2867 23.9113 41.8933 24.076 42.656 24.076ZM57.0234 26.312C55.4634 26.312 54.2328 25.8267 53.3314 24.856C52.4474 23.8853 52.0054 22.438 52.0054 20.514V13.104H54.7614V20.228C54.7614 22.724 55.7841 23.972 57.8294 23.972C58.8521 23.972 59.6928 23.608 60.3514 22.88C61.0101 22.152 61.3394 21.112 61.3394 19.76V13.104H64.0954V26H61.6514L61.4434 23.738C61.0448 24.5353 60.4554 25.168 59.6754 25.636C58.9128 26.0867 58.0288 26.312 57.0234 26.312ZM73.4774 26.312C72.2294 26.312 71.1287 26.0173 70.1754 25.428C69.222 24.8387 68.4767 24.0327 67.9394 23.01C67.402 21.9873 67.1334 20.826 67.1334 19.526C67.1334 18.226 67.402 17.0733 67.9394 16.068C68.4767 15.0453 69.222 14.248 70.1754 13.676C71.146 13.0867 72.2554 12.792 73.5034 12.792C74.526 12.792 75.4187 12.9913 76.1814 13.39C76.9614 13.7887 77.568 14.352 78.0014 15.08V7.28H80.7574V26H78.2874L78.0014 23.998C77.5854 24.6047 77.0134 25.142 76.2854 25.61C75.5574 26.078 74.6214 26.312 73.4774 26.312ZM73.9714 23.92C75.15 23.92 76.112 23.5127 76.8574 22.698C77.62 21.8833 78.0014 20.8347 78.0014 19.552C78.0014 18.252 77.62 17.2033 76.8574 16.406C76.112 15.5913 75.15 15.184 73.9714 15.184C72.7927 15.184 71.822 15.5913 71.0594 16.406C70.2967 17.2033 69.9154 18.252 69.9154 19.552C69.9154 20.4013 70.0887 21.1553 70.4354 21.814C70.782 22.4727 71.2587 22.9927 71.8654 23.374C72.4894 23.738 73.1914 23.92 73.9714 23.92ZM85.7922 10.66C85.2722 10.66 84.8389 10.504 84.4922 10.192C84.1629 9.86267 83.9982 9.45533 83.9982 8.97C83.9982 8.48467 84.1629 8.086 84.4922 7.774C84.8389 7.44467 85.2722 7.28 85.7922 7.28C86.3122 7.28 86.7369 7.44467 87.0662 7.774C87.4129 8.086 87.5862 8.48467 87.5862 8.97C87.5862 9.45533 87.4129 9.86267 87.0662 10.192C86.7369 10.504 86.3122 10.66 85.7922 10.66ZM84.4142 26V13.104H87.1702V26H84.4142ZM91.4584 26V15.418H89.6124V13.104H91.4584V11.232C91.4584 9.828 91.8051 8.82267 92.4984 8.216C93.2091 7.592 94.2057 7.28 95.4884 7.28H96.8404V9.62H95.9044C95.2977 9.62 94.8644 9.75 94.6044 10.01C94.3444 10.2527 94.2144 10.6687 94.2144 11.258V13.104H97.1784V15.418H94.2144V26H91.4584ZM101.305 31.72L104.399 24.934H103.645L98.5487 13.104H101.539L105.491 22.646L109.625 13.104H112.537L104.217 31.72H101.305ZM113.965 26.156C113.445 26.156 113.012 25.9913 112.665 25.662C112.336 25.3153 112.171 24.908 112.171 24.44C112.171 23.9547 112.336 23.5473 112.665 23.218C113.012 22.8713 113.445 22.698 113.965 22.698C114.485 22.698 114.91 22.8713 115.239 23.218C115.568 23.5473 115.733 23.9547 115.733 24.44C115.733 24.908 115.568 25.3153 115.239 25.662C114.91 25.9913 114.485 26.156 113.965 26.156Z" fill="#2D0969"/>
<defs>
<clipPath id="clip0_14_56">
<rect width="20" height="20" fill="white" transform="translate(8 7)"/>
</clipPath>
</defs>
</svg>
