<svg width="124" height="34" viewBox="0 0 124 34" fill="none" xmlns="http://www.w3.org/2000/svg">
<g clip-path="url(#clip0_349_2437)">
<path d="M18 6.99999C16.6868 6.99999 15.3864 7.22991 14.1732 7.67662C12.9599 8.12333 11.8575 8.77808 10.9289 9.60349C10.0003 10.4289 9.26375 11.4088 8.7612 12.4873C8.25866 13.5657 8 14.7216 8 15.8889L18 15.8889L18 6.99999Z" fill="#4187FA"/>
<path d="M8 17C8 18.3132 8.25866 19.6136 8.76121 20.8268C9.26375 22.0401 10.0003 23.1425 10.9289 24.0711C11.8575 24.9997 12.9599 25.7362 14.1732 26.2388C15.3864 26.7413 16.6868 27 18 27L18 17L8 17Z" fill="#5B5966"/>
<path fill-rule="evenodd" clip-rule="evenodd" d="M27.3234 12.4873C27.7701 13.5657 28 14.7216 28 15.8889H19.1111L19.1111 7C20.2784 7 21.4343 7.22992 22.5127 7.67663C23.5912 8.12333 24.5711 8.77809 25.3965 9.6035C26.2219 10.4289 26.8767 11.4088 27.3234 12.4873ZM21.8889 14.7778C22.8094 14.7778 23.5556 14.0316 23.5556 13.1111C23.5556 12.1906 22.8094 11.4444 21.8889 11.4444C20.9684 11.4444 20.2222 12.1906 20.2222 13.1111C20.2222 14.0316 20.9684 14.7778 21.8889 14.7778Z" fill="#9C62FB"/>
</g>
<path d="M42.006 26.312C40.9313 26.312 40.0387 26.1387 39.328 25.792C38.6173 25.428 38.0887 24.9427 37.742 24.336C37.4127 23.7293 37.248 23.0707 37.248 22.36C37.248 21.5107 37.4647 20.7827 37.898 20.176C38.3487 19.5693 38.99 19.1013 39.822 18.772C40.654 18.4427 41.6593 18.278 42.838 18.278H46.27C46.27 17.5327 46.1487 16.9173 45.906 16.432C45.6633 15.9293 45.3167 15.5567 44.866 15.314C44.4327 15.0713 43.8867 14.95 43.228 14.95C42.448 14.95 41.7633 15.1407 41.174 15.522C40.602 15.9033 40.2467 16.4753 40.108 17.238H37.508C37.612 16.2847 37.9327 15.4873 38.47 14.846C39.0073 14.1873 39.692 13.6847 40.524 13.338C41.3733 12.974 42.2833 12.792 43.254 12.792C44.45 12.792 45.464 13.0087 46.296 13.442C47.1453 13.8753 47.7867 14.4907 48.22 15.288C48.6533 16.068 48.87 16.9953 48.87 18.07V26H46.608L46.4 23.79H46.374C46.1833 24.154 45.9493 24.492 45.672 24.804C45.412 25.116 45.1 25.3847 44.736 25.61C44.3893 25.818 43.982 25.9827 43.514 26.104C43.0633 26.2427 42.5607 26.312 42.006 26.312ZM42.526 24.206C43.098 24.206 43.6093 24.0933 44.06 23.868C44.5107 23.6427 44.892 23.3393 45.204 22.958C45.5333 22.5593 45.776 22.1173 45.932 21.632C46.1053 21.1467 46.2007 20.644 46.218 20.124H43.098C42.3527 20.124 41.746 20.2107 41.278 20.384C40.81 20.5573 40.472 20.8 40.264 21.112C40.0733 21.424 39.978 21.788 39.978 22.204C39.978 22.6027 40.0733 22.958 40.264 23.27C40.472 23.5647 40.7667 23.7987 41.148 23.972C41.5293 24.128 41.9887 24.206 42.526 24.206ZM56.6915 26.312C55.6689 26.312 54.7762 26.104 54.0135 25.688C53.2682 25.2547 52.6962 24.6133 52.2975 23.764C51.8989 22.9147 51.6995 21.84 51.6995 20.54V13.104H54.2995V20.28C54.2995 21.5453 54.5595 22.4987 55.0795 23.14C55.5995 23.7813 56.3709 24.102 57.3935 24.102C58.1042 24.102 58.7282 23.9373 59.2655 23.608C59.8202 23.2613 60.2535 22.7673 60.5655 22.126C60.8949 21.4847 61.0595 20.7047 61.0595 19.786V13.104H63.6595V26H61.3195L61.1375 23.764C60.7215 24.544 60.1235 25.168 59.3435 25.636C58.5809 26.0867 57.6969 26.312 56.6915 26.312ZM72.8402 26.312C71.5922 26.312 70.4915 26.0173 69.5382 25.428C68.5848 24.8387 67.8395 24.0327 67.3022 23.01C66.7648 21.9873 66.4962 20.826 66.4962 19.526C66.4962 18.226 66.7648 17.0733 67.3022 16.068C67.8395 15.0453 68.5848 14.248 69.5382 13.676C70.5088 13.0867 71.6268 12.792 72.8922 12.792C73.9322 12.792 74.8422 13 75.6222 13.416C76.4195 13.832 77.0348 14.3953 77.4682 15.106V7.332H80.0682V26H77.7542L77.4942 23.92H77.4682C77.1908 24.3533 76.8355 24.752 76.4022 25.116C75.9688 25.48 75.4575 25.7747 74.8682 26C74.2788 26.208 73.6028 26.312 72.8402 26.312ZM73.2822 24.05C74.0968 24.05 74.8162 23.8593 75.4402 23.478C76.0642 23.0967 76.5495 22.568 76.8962 21.892C77.2602 21.216 77.4422 20.436 77.4422 19.552C77.4422 18.6507 77.2602 17.862 76.8962 17.186C76.5495 16.51 76.0642 15.99 75.4402 15.626C74.8162 15.2447 74.0968 15.054 73.2822 15.054C72.4848 15.054 71.7742 15.2447 71.1502 15.626C70.5262 15.99 70.0408 16.51 69.6942 17.186C69.3475 17.862 69.1742 18.6507 69.1742 19.552C69.1742 20.436 69.3475 21.216 69.6942 21.892C70.0408 22.568 70.5262 23.0967 71.1502 23.478C71.7742 23.8593 72.4848 24.05 73.2822 24.05ZM83.6519 26V13.104H86.2519V26H83.6519ZM84.9519 10.582C84.4492 10.582 84.0332 10.426 83.7039 10.114C83.3919 9.802 83.2359 9.40333 83.2359 8.918C83.2359 8.45 83.3919 8.06867 83.7039 7.774C84.0332 7.462 84.4492 7.306 84.9519 7.306C85.4372 7.306 85.8446 7.462 86.1739 7.774C86.5032 8.06867 86.6679 8.45867 86.6679 8.944C86.6679 9.412 86.5032 9.802 86.1739 10.114C85.8446 10.426 85.4372 10.582 84.9519 10.582ZM90.519 26V11.206C90.519 10.2873 90.6663 9.55067 90.961 8.996C91.273 8.424 91.7236 8.008 92.313 7.748C92.9023 7.47067 93.613 7.332 94.445 7.332H95.797V9.542H94.835C94.2283 9.542 93.7863 9.672 93.509 9.932C93.249 10.1747 93.119 10.608 93.119 11.232V26H90.519ZM88.621 15.262V13.104H96.135V15.262H88.621ZM100.136 31.668L103.334 24.544H102.554L97.3801 13.104H100.188L104.322 22.438H104.348L108.482 13.104H111.186L102.866 31.668H100.136ZM112.49 26.13C112.004 26.13 111.597 25.974 111.268 25.662C110.938 25.3327 110.774 24.9427 110.774 24.492C110.774 24.024 110.938 23.634 111.268 23.322C111.597 22.9927 112.004 22.828 112.49 22.828C112.992 22.828 113.4 22.9927 113.712 23.322C114.024 23.634 114.18 24.024 114.18 24.492C114.18 24.9427 114.024 25.3327 113.712 25.662C113.4 25.974 112.992 26.13 112.49 26.13Z" fill="#C0BFC4"/>
<defs>
<clipPath id="clip0_349_2437">
<rect width="20" height="20" fill="white" transform="translate(8 7)"/>
</clipPath>
</defs>
</svg>
